<svg xmlns="http://www.w3.org/2000/svg" width="512" height="512" viewBox="0 0 512 512">
<g>
<path d="M 481.52 398.13 C477.67,399.88 468.42,399.96 256.50,399.94 C240.80,399.94 226.20,399.94 212.62,399.94 C40.02,399.95 32.09,399.95 27.39,396.05 C26.79,395.56 26.24,395.00 25.42,394.37 C23.46,392.88 20.65,389.37 19.18,386.58 L 16.50 381.50 L 16.50 82.50 L 19.18 77.42 C24.25,67.81 30.42,64.84 46.57,64.23 C58.34,63.78 58.72,63.83 61.32,66.25 C64.82,69.49 64.98,74.73 61.69,77.83 C59.62,79.76 58.27,80.00 49.23,80.00 C38.13,80.00 34.79,80.96 33.11,84.66 C32.32,86.40 32.00,120.33 32.00,203.55 L 32.00 320.00 L 480.00 320.00 L 480.00 84.15 L 477.37 82.07 C475.07,80.27 473.34,80.00 464.05,80.00 C454.82,80.00 453.09,79.73 451.27,78.03 C446.75,73.83 447.68,67.21 453.10,64.96 C456.90,63.38 477.35,64.18 481.50,66.07 C487.14,68.63 490.90,72.16 493.45,77.28 L 496.00 82.39 L 495.98 231.95 C495.96,374.62 495.87,381.68 494.13,385.52 C491.80,390.66 486.66,395.80 481.52,398.13 ZM 93.55 301.55 C90.44,304.65 86.89,304.67 83.31,301.59 L 80.50 299.17 L 80.50 34.50 L 82.86 29.74 C84.16,27.13 86.86,23.72 88.86,22.17 C89.77,21.47 90.42,20.85 91.13,20.31 C96.15,16.48 104.09,16.48 228.08,16.50 C237.10,16.50 246.72,16.50 257.00,16.50 C403.80,16.50 414.75,16.62 418.14,18.22 C422.96,20.49 427.88,25.52 430.13,30.48 C431.87,34.31 431.96,40.84 431.98,167.08 L 432.00 299.65 L 429.69 301.83 C425.72,305.55 419.86,304.38 417.16,299.32 C416.30,297.70 416.00,271.10 416.00,196.57 L 416.00 96.00 L 96.00 96.00 L 96.00 299.09 ZM 35.91 382.72 C37.15,383.67 85.91,383.94 256.44,383.97 L 475.37 384.00 L 477.69 381.83 C479.97,379.68 480.00,379.35 480.00,357.83 L 480.00 336.00 L 32.00 336.00 L 32.00 356.57 C32.00,377.36 32.40,380.02 35.91,382.72 ZM 96.00 59.55 L 96.00 80.00 L 416.00 80.00 L 416.00 36.15 L 413.37 34.07 L 410.73 32.00 L 256.91 32.00 C146.31,32.00 102.41,32.31 100.66,33.11 C96.49,35.01 96.00,37.80 96.00,59.55 ZM 365.55 493.55 L 363.09 496.00 L 150.11 496.00 L 147.31 493.58 C144.52,491.18 144.50,491.08 144.54,479.33 C144.57,469.13 144.89,466.77 146.92,462.23 C151.12,452.79 158.08,448.96 172.37,448.23 L 182.25 447.72 L 189.37 440.56 C193.29,436.62 198.07,430.55 200.00,427.06 C204.82,418.32 207.18,416.00 211.27,416.00 C216.33,416.00 219.36,419.29 218.72,424.07 C218.15,428.29 212.38,438.24 207.25,443.84 L 203.90 447.50 L 255.61 447.76 C284.05,447.90 307.52,447.81 307.78,447.56 C308.03,447.30 306.72,445.32 304.87,443.16 C299.43,436.81 294.00,426.89 294.00,423.31 C294.00,419.23 297.29,415.99 301.44,416.02 C305.68,416.04 306.73,416.91 310.34,423.41 C314.51,430.92 323.39,441.85 327.96,445.10 C331.08,447.33 332.99,447.79 341.06,448.25 C351.69,448.85 356.31,450.46 361.04,455.20 C366.76,460.91 367.95,464.97 367.98,478.80 C368.00,490.53 367.89,491.20 365.55,493.55 ZM 160.00 475.55 L 160.00 480.00 L 352.00 480.00 L 352.00 474.07 C352.00,468.86 351.68,467.90 349.37,466.07 C346.74,464.01 346.26,464.00 256.91,464.00 C193.22,464.00 166.39,464.32 164.66,465.11 C161.53,466.54 160.00,469.96 160.00,475.55 ZM 236.69 286.50 C233.41,288.80 230.15,288.30 226.84,285.00 C224.40,282.55 223.96,281.46 224.48,279.09 C226.48,269.97 273.34,132.23 275.01,130.55 C277.24,128.31 283.01,127.93 285.34,129.87 C289.36,133.20 289.04,134.39 263.50,211.01 C244.48,268.06 238.34,285.35 236.69,286.50 ZM 325.62 253.77 C321.50,256.95 317.73,256.66 314.59,252.92 C313.17,251.23 312.00,248.90 312.00,247.74 C312.00,244.85 319.25,238.30 351.20,212.32 C353.79,210.22 355.90,208.27 355.90,208.00 C355.89,207.73 346.43,199.69 334.88,190.14 C323.23,180.52 313.45,171.67 312.92,170.30 C311.01,165.26 316.83,159.17 322.26,160.53 C324.43,161.07 368.62,197.28 373.75,202.72 C375.02,204.06 376.00,206.37 376.00,208.00 C376.00,209.60 375.00,211.98 373.75,213.34 C371.75,215.53 332.99,248.09 325.62,253.77 ZM 195.94 255.53 C194.38,256.34 192.91,257.00 192.69,257.00 C190.07,257.00 137.44,212.80 136.71,209.98 C135.45,205.20 135.49,205.16 166.50,179.43 C173.65,173.49 181.42,166.97 183.77,164.92 C186.13,162.88 189.19,160.92 190.57,160.57 C195.98,159.21 201.04,164.71 199.62,170.39 C199.26,171.80 190.93,179.42 178.07,190.09 C166.54,199.67 157.11,207.73 157.11,208.00 C157.11,208.27 166.58,216.33 178.14,225.90 C189.70,235.47 199.56,244.34 200.04,245.61 C201.31,248.95 199.31,253.79 195.94,255.53 ZM 397.55 61.55 L 395.09 64.00 L 344.23 64.00 C294.53,64.00 293.33,63.95 291.20,61.97 C286.61,57.69 287.86,51.15 293.69,48.93 C295.29,48.32 315.24,48.05 346.22,48.22 L 396.18 48.50 L 398.09 50.86 C400.75,54.15 400.52,58.57 397.55,61.55 ZM 277.70 366.50 C275.98,367.70 271.87,368.00 256.91,368.00 C239.57,368.00 238.09,367.86 235.63,365.93 C232.22,363.24 231.95,357.26 235.10,354.40 C236.96,352.72 239.17,352.46 254.35,352.17 C273.84,351.80 278.53,352.63 280.09,356.73 C281.42,360.23 280.33,364.65 277.70,366.50 ZM 157.55 61.55 C154.46,64.63 150.89,64.67 147.39,61.66 C141.82,56.87 145.12,48.60 152.61,48.60 C159.48,48.60 162.52,56.57 157.55,61.55 ZM 189.55 61.55 C186.46,64.63 182.89,64.67 179.39,61.66 C173.82,56.87 177.12,48.60 184.61,48.60 C191.48,48.60 194.52,56.57 189.55,61.55 ZM 125.55 61.55 C122.46,64.63 118.89,64.67 115.39,61.66 C109.82,56.87 113.12,48.60 120.61,48.60 C127.48,48.60 130.52,56.57 125.55,61.55 Z" fill="rgb(0,0,0)"/>
<path d="M 0.00 256.00 L 0.00 0.00 L 256.00 0.00 L 512.00 0.00 L 512.00 256.00 L 512.00 512.00 L 256.00 512.00 L 0.00 512.00 L 0.00 256.00 ZM 365.55 493.55 C367.89,491.20 368.00,490.53 367.98,478.80 C367.95,464.97 366.76,460.91 361.04,455.20 C356.31,450.46 351.69,448.85 341.06,448.25 C332.99,447.79 331.08,447.33 327.96,445.10 C323.39,441.85 314.51,430.92 310.34,423.41 C306.73,416.91 305.68,416.04 301.44,416.02 C297.29,415.99 294.00,419.23 294.00,423.31 C294.00,426.89 299.43,436.81 304.87,443.16 C306.72,445.32 308.03,447.30 307.78,447.56 C307.52,447.81 284.05,447.90 255.61,447.76 L 203.90 447.50 L 207.25 443.84 C212.38,438.24 218.15,428.29 218.72,424.07 C219.36,419.29 216.33,416.00 211.27,416.00 C207.18,416.00 204.82,418.32 200.00,427.06 C198.07,430.55 193.29,436.62 189.37,440.56 L 182.25 447.72 L 172.37 448.23 C158.08,448.96 151.12,452.79 146.92,462.23 C144.89,466.77 144.57,469.13 144.54,479.33 C144.50,491.08 144.52,491.18 147.31,493.58 L 150.11 496.00 L 256.60 496.00 L 363.09 496.00 L 365.55 493.55 ZM 481.52 398.13 C486.66,395.80 491.80,390.66 494.13,385.52 C495.87,381.68 495.96,374.62 495.98,231.95 L 496.00 82.39 L 493.45 77.28 C490.90,72.16 487.14,68.63 481.50,66.07 C477.35,64.18 456.90,63.38 453.10,64.96 C447.68,67.21 446.75,73.83 451.27,78.03 C453.09,79.73 454.82,80.00 464.05,80.00 C473.34,80.00 475.07,80.27 477.37,82.07 L 480.00 84.15 L 480.00 202.07 L 480.00 320.00 L 256.00 320.00 L 32.00 320.00 L 32.00 203.55 C32.00,120.33 32.32,86.40 33.11,84.66 C34.79,80.96 38.13,80.00 49.23,80.00 C58.27,80.00 59.62,79.76 61.69,77.83 C64.98,74.73 64.82,69.49 61.32,66.25 C58.72,63.83 58.34,63.78 46.57,64.23 C30.42,64.84 24.25,67.81 19.18,77.42 L 16.50 82.50 L 16.50 232.00 L 16.50 381.50 L 19.18 386.58 C20.65,389.37 23.46,392.88 25.42,394.37 C33.24,400.34 15.98,399.92 256.50,399.94 C468.42,399.96 477.67,399.88 481.52,398.13 ZM 93.55 301.55 L 96.00 299.09 L 96.00 197.55 L 96.00 96.00 L 256.00 96.00 L 416.00 96.00 L 416.00 196.57 C416.00,271.10 416.30,297.70 417.16,299.32 C419.86,304.38 425.72,305.55 429.69,301.83 L 432.00 299.65 L 431.98 167.08 C431.96,40.84 431.87,34.31 430.13,30.48 C427.88,25.52 422.96,20.49 418.14,18.22 C414.75,16.62 403.80,16.50 257.00,16.50 C85.30,16.50 96.69,16.12 88.86,22.17 C86.86,23.72 84.16,27.13 82.86,29.74 L 80.50 34.50 L 80.50 166.84 L 80.50 299.17 L 83.31 301.59 C86.89,304.67 90.44,304.65 93.55,301.55 ZM 236.69 286.50 C238.34,285.35 244.48,268.06 263.50,211.01 C289.04,134.39 289.36,133.20 285.34,129.87 C283.01,127.93 277.24,128.31 275.01,130.55 C273.34,132.23 226.48,269.97 224.48,279.09 C223.96,281.46 224.40,282.55 226.84,285.00 C230.15,288.30 233.41,288.80 236.69,286.50 ZM 195.94 255.53 C199.31,253.79 201.31,248.95 200.04,245.61 C199.56,244.34 189.70,235.47 178.14,225.90 C166.58,216.33 157.11,208.27 157.11,208.00 C157.11,207.73 166.54,199.67 178.07,190.09 C190.93,179.42 199.26,171.80 199.62,170.39 C201.04,164.71 195.98,159.21 190.57,160.57 C189.19,160.92 186.13,162.88 183.77,164.92 C181.42,166.97 173.65,173.49 166.50,179.43 C135.49,205.16 135.45,205.20 136.71,209.98 C137.44,212.80 190.07,257.00 192.69,257.00 C192.91,257.00 194.38,256.34 195.94,255.53 ZM 325.62 253.77 C332.99,248.09 371.75,215.53 373.75,213.34 C375.00,211.98 376.00,209.60 376.00,208.00 C376.00,206.37 375.02,204.06 373.75,202.72 C368.62,197.28 324.43,161.07 322.26,160.53 C316.83,159.17 311.01,165.26 312.92,170.30 C313.45,171.67 323.23,180.52 334.88,190.14 C346.43,199.69 355.89,207.73 355.90,208.00 C355.90,208.27 353.79,210.22 351.20,212.32 C319.25,238.30 312.00,244.85 312.00,247.74 C312.00,248.90 313.17,251.23 314.59,252.92 C317.73,256.66 321.50,256.95 325.62,253.77 ZM 160.00 475.55 C160.00,469.96 161.53,466.54 164.66,465.11 C166.39,464.32 193.22,464.00 256.91,464.00 C346.26,464.00 346.74,464.01 349.37,466.07 C351.68,467.90 352.00,468.86 352.00,474.07 L 352.00 480.00 L 256.00 480.00 L 160.00 480.00 L 160.00 475.55 ZM 35.91 382.72 C32.40,380.02 32.00,377.36 32.00,356.57 L 32.00 336.00 L 256.00 336.00 L 480.00 336.00 L 480.00 357.83 C480.00,379.35 479.97,379.68 477.69,381.83 L 475.37 384.00 L 256.44 383.97 C85.91,383.94 37.15,383.67 35.91,382.72 ZM 277.70 366.50 C280.33,364.65 281.42,360.23 280.09,356.73 C278.53,352.63 273.84,351.80 254.35,352.17 C239.17,352.46 236.96,352.72 235.10,354.40 C231.95,357.26 232.22,363.24 235.63,365.93 C238.09,367.86 239.57,368.00 256.91,368.00 C271.87,368.00 275.98,367.70 277.70,366.50 ZM 96.00 59.55 C96.00,37.80 96.49,35.01 100.66,33.11 C102.41,32.31 146.31,32.00 256.91,32.00 L 410.73 32.00 L 413.37 34.07 L 416.00 36.15 L 416.00 58.07 L 416.00 80.00 L 256.00 80.00 L 96.00 80.00 L 96.00 59.55 ZM 125.55 61.55 C130.52,56.57 127.48,48.60 120.61,48.60 C113.12,48.60 109.82,56.87 115.39,61.66 C118.89,64.67 122.46,64.63 125.55,61.55 ZM 157.55 61.55 C162.52,56.57 159.48,48.60 152.61,48.60 C145.12,48.60 141.82,56.87 147.39,61.66 C150.89,64.67 154.46,64.63 157.55,61.55 ZM 189.55 61.55 C194.52,56.57 191.48,48.60 184.61,48.60 C177.12,48.60 173.82,56.87 179.39,61.66 C182.89,64.67 186.46,64.63 189.55,61.55 ZM 397.55 61.55 C400.52,58.57 400.75,54.15 398.09,50.86 L 396.18 48.50 L 346.22 48.22 C315.24,48.05 295.29,48.32 293.69,48.93 C287.86,51.15 286.61,57.69 291.20,61.97 C293.33,63.95 294.53,64.00 344.23,64.00 L 395.09 64.00 L 397.55 61.55 Z" fill="rgb(254,254,254)"/>
</g>
</svg>